<?xml version="1.0" standalone="no"?><!DOCTYPE svg PUBLIC "-//W3C//DTD SVG 1.1//EN" "http://www.w3.org/Graphics/SVG/1.1/DTD/svg11.dtd"><svg class="icon" height="512" viewBox="0 0 1024 1024" version="1.1" xmlns="http://www.w3.org/2000/svg"><path fill="pink" d="M802.503327 958.925912 218.376613 958.925912c-66.503647 0-120.608915-54.106292-120.608915-120.608915L97.767698 204.52514c0-66.503647 54.106292-120.608915 120.608915-120.608915l44.932352 0c15.671934 0 28.378327 12.704346 28.378327 28.378327 0 15.671934-12.706393 28.378327-28.378327 28.378327l-44.932352 0c-35.20992 0-63.85226 28.644387-63.85226 63.85226L154.524352 838.315974c0 35.20992 28.64234 63.85226 63.85226 63.85226l584.126714 0c35.20992 0 63.85226-28.64234 63.85226-63.85226L866.355587 204.52514c0-35.207873-28.64234-63.85226-63.85226-63.85226l-47.298236 0c-15.671934 0-28.378327-12.706393-28.378327-28.378327 0-15.673981 12.706393-28.378327 28.378327-28.378327l47.298236 0c66.503647 0 120.608915 54.106292 120.608915 120.608915L923.112242 838.315974C923.112242 904.81962 869.006973 958.925912 802.503327 958.925912zM739.834009 367.701546 281.045931 367.701546c-15.671934 0-28.378327-12.706393-28.378327-28.378327 0-15.671934 12.706393-28.378327 28.378327-28.378327L739.834009 310.944891c15.671934 0 28.378327 12.706393 28.378327 28.378327C768.212336 354.995153 755.505943 367.701546 739.834009 367.701546zM739.834009 526.149255 281.045931 526.149255c-15.671934 0-28.378327-12.706393-28.378327-28.378327s12.706393-28.378327 28.378327-28.378327L739.834009 469.3926c15.671934 0 28.378327 12.706393 28.378327 28.378327S755.505943 526.149255 739.834009 526.149255zM739.834009 689.328731 281.045931 689.328731c-15.671934 0-28.378327-12.706393-28.378327-28.378327 0-15.671934 12.706393-28.378327 28.378327-28.378327L739.834009 632.572076c15.671934 0 28.378327 12.706393 28.378327 28.378327C768.212336 676.622338 755.505943 689.328731 739.834009 689.328731zM626.319675 159.591765l-231.758388 0c-26.119891 0-47.297212-21.175275-47.297212-47.297212s21.177322-47.297212 47.297212-47.297212l231.758388 0c26.119891 0 47.297212 21.175275 47.297212 47.297212S652.439566 159.591765 626.319675 159.591765z" /></svg>